<?xml version="1.0" encoding="UTF-8"?>
<!-- Generator: Adobe Illustrator 25.2.0, SVG Export Plug-In . SVG Version: 6.00 Build 0)  -->
<svg version="1.1" id="Layer_1" xmlns="http://www.w3.org/2000/svg" xmlns:xlink="http://www.w3.org/1999/xlink" x="0px" y="0px" viewBox="0 0 145 100" style="enable-background:new 0 0 145 100;" xml:space="preserve">
<style type="text/css">
	.st0{fill-rule:evenodd;clip-rule:evenodd;fill:#000000;}
	.st1{fill:#000000;}
</style>
<g>
	<path class="st0" d="M140.1,33.75C129.5,12.28,103.19,0.15,71.54,0c-16.13-0.08-30.7,3.88-43.3,10.75   C10.67,20.33,0.97,34.8,0.97,50.72c0,27.3,31.15,49.28,69.78,49.28c16.28,0,32.45-2.88,45.13-9.9c17.42-9.63,27.15-24.9,28.1-40.65   C144.33,43.85,142.6,38.78,140.1,33.75z M112.44,87.12c-11.45,5.47-25.8,8.3-41.07,8.3c-39.12,0-67.68-19.87-67.68-43.97   c0-15.82,12.35-33.07,32.98-40.12c10.75-3.67,23.3-6.07,36.75-6.07c39.12,0,68.07,20.18,67.88,44.28   C141.2,64.57,130.34,78.57,112.44,87.12z"/>
	<polygon class="st0" points="24.05,48.77 25.02,45.58 3.29,45.58 2.39,48.77  "/>
	<polygon class="st0" points="38.94,13.47 59.02,13.47 57.92,16.53 41.77,16.53 37.99,29.28 53.74,29.28 53.1,31.73 37.12,31.73   32.72,45.12 50.59,45.12 49.89,48.67 28.15,48.67  "/>
	<path class="st0" d="M107.84,13.62c-5.12-3.15-13.47-0.55-15.43,1.18c0,0-2.37,1.1-5.75,5.12c-3.38,4.02-4.73,12.37-4.73,12.37   s-1.27,6.7,2.05,11.73c3.3,5.03,10.47,4.42,10.47,4.42c9.37-0.08,14.02-7.57,14.02-7.48c0,0,4.48-6.15,5.2-12.83   C114.47,20.58,112.95,16.77,107.84,13.62z M106.1,37.87c0,0-3.7,7.48-11.97,7.72c-7.32,0.22-8.12-5.12-8.12-5.12   s-1.02-3.78,0.4-9.68c0,0,1.38-5.85,3.7-9.13c2.83-4.02,5.43-6.3,11.18-6.38c0,0,8.03-0.63,8.5,7.48   C110.29,30.87,106.1,37.87,106.1,37.87z"/>
	<polygon class="st0" points="63.42,50.08 83.44,50.08 82.32,53.18 66.45,53.18 62.52,65.2 78.35,65.2 77.44,68.27 61.5,68.27   57.59,81.58 75.79,81.58 74.6,85.28 52.64,85.28  "/>
	<polygon class="st0" points="141.55,52.97 142.28,49.37 135.35,49.37 134.39,52.97  "/>
	<polygon class="st0" points="107.79,49.37 106.59,52.88 117.42,52.88 107.69,85.2 111.47,85.12 120.99,52.9 130.2,52.9   131.34,49.37  "/>
	<path class="st0" d="M106.65,57.32c-0.32-7.08-6.77-7.25-6.77-7.25h-12.6l-10.72,35.2h3.5l5-16.97c0,0,5.55-0.15,9.65,0   c4.1,0.15,2.88,4.6,2.88,4.6l-0.88,12.13h4.12c0,0-0.32-2.68,0.32-10.4c0.63-7.72-2.83-8.03-2.83-8.03S106.94,63.47,106.65,57.32z    M102.7,60.02c-1.08,2.58-5.18,5.15-7.83,5.15h-8.83L89.7,53.2h9.57C99.25,53.18,105.4,53.55,102.7,60.02z"/>
	<path class="st0" d="M53.97,59.92c0,0,1.88-7.72-6.85-7.48c0,0-2.83-0.32-5.38,1.35c-2.28,1.48-4.22,3.38-5.78,6.22   c0,0-2.05,2.05-3.7,8.35c0,0-0.72,3.47-0.63,6.93c0.07,3.07,0.47,7.4,7.88,7.48c7.4,0.08,9.13-5.67,9.13-5.67h4.42   c0,0-2.37,8.82-13.55,8.82c0,0-9.55,0.03-11.02-7.02c-1.65-7.88,1.42-14.97,1.42-14.97s3.7-8.82,9.05-11.58   c0,0,4.17-2.37,8.43-2.37c4.25,0,11.33,1.42,10.47,9.92h-3.88V59.92z"/>
	<path class="st0" d="M80.44,22.75c0,0,1.88-7.72-6.85-7.48c0,0-2.83-0.32-5.38,1.35c-2.28,1.48-4.22,3.38-5.78,6.22   c0,0-2.05,2.05-3.7,8.35c0,0-0.72,3.47-0.63,6.93c0.07,3.07,0.47,7.4,7.88,7.48c7.4,0.08,9.13-5.67,9.13-5.67h4.42   c0,0-2.37,8.82-13.55,8.82c0,0-9.55,0.03-11.03-7.02c-1.65-7.87,1.42-14.97,1.42-14.97s3.7-8.82,9.05-11.58   c0,0,4.17-2.37,8.43-2.37c4.25,0,11.33,1.42,10.47,9.92h-3.87V22.75z"/>
	<g>
		<path class="st0" d="M133.2,90.88v-3.97h0.4c0.57,0,1.23-0.03,1.75,0.22c0.7,0.32,1.03,1.03,1.03,1.75c0,0.58-0.22,1.17-0.68,1.53    c-0.48,0.43-1.1,0.45-1.7,0.45h-0.8V90.88z M134.22,91.47c1.62,0.03,2.78-0.85,2.78-2.55c0-0.83-0.28-1.6-0.98-2.1    c-0.67-0.48-1.43-0.48-2.22-0.48h-1.22v9.73h0.62v-4.62h0.32l3.18,4.62h0.72L134.22,91.47L134.22,91.47z"/>
	</g>
	<g>
		<path class="st1" d="M134.45,98.55c-4.1,0-7.43-3.33-7.43-7.43s3.33-7.43,7.43-7.43c4.1,0,7.43,3.33,7.43,7.43    S138.55,98.55,134.45,98.55z M134.45,84.52c-3.63,0-6.6,2.97-6.6,6.6c0,3.63,2.97,6.6,6.6,6.6c3.63,0,6.6-2.97,6.6-6.6    C141.07,87.47,138.1,84.52,134.45,84.52z"/>
	</g>
</g>
</svg>